<?xml version='1.0' encoding='utf-8'?>
<svg xmlns="http://www.w3.org/2000/svg" version="1.1" width="600px" height="976px" viewBox="0 0 600 976"> <g id="layer1"> <g style="fill:rgb(0,0,0); fill-opacity:1.0; stroke-linejoin: miter"> <path d="M312.10855,468.17786Q310.18948,468.21307,308.84576,469.53546Q307.52283,470.8956,307.49875,472.79987Q307.52808,474.7052,308.8509,476.06006Q310.2008,477.38315,312.11847,477.41254Q314.03757,477.37958,315.383,476.05844Q316.70755,474.69955,316.7335,472.79526Q316.7061,470.88995,315.38486,469.53384Q314.0366,468.2095,312.11905,468.17783"/> </g> <g style="fill:rgb(255,255,255); fill-opacity:1.0; stroke-linejoin: miter"> <path d="M312.11118,468.65634Q310.39774,468.68695,309.1832,469.87448Q307.9954,471.11288,307.97723,472.79382Q308.00122,474.49918,309.1933,475.72598Q310.41467,476.91116,312.12704,476.93405Q313.84036,476.9009,315.05298,475.71194Q316.23892,474.47232,316.255,472.79135Q316.22284,471.07986,315.04724,469.87262Q313.8298,468.68448,312.11774,468.6563"/> </g> <g> <g style="fill:rgb(0,0,0); fill-opacity:1.0; stroke-linejoin: miter"> <path d="M309.95905,475.3215C309.95938,475.44366,310.05865,475.5424,310.18088,475.54202L314.05225,475.53082C314.17447,475.5305,314.27316,475.43118,314.2729,475.30902L314.26196,471.54825L309.94815,471.5607L309.95905,475.3215 Z M313.26804,472.10416C313.2677,471.98196,313.36642,471.88266,313.48865,471.8823L313.82047,471.88135C313.9427,471.881,314.042,471.97974,314.04233,472.10193L314.04263,472.21252C314.043,472.33475,313.94427,472.43405,313.82208,472.4344L313.49023,472.43536C313.368,472.4357,313.2687,472.33698,313.26834,472.21475L313.26804,472.10416 Z M313.27063,472.98907C313.27026,472.86685,313.369,472.76755,313.4912,472.7672L313.82303,472.76624C313.94525,472.7659,314.04456,472.86462,314.04492,472.98685L314.04523,473.09744C314.04556,473.2196,313.94684,473.3189,313.82462,473.31927L313.4928,473.32022C313.37057,473.32056,313.27127,473.22183,313.27094,473.09967L313.27063,472.98907 Z M313.2732,473.87393C313.27283,473.7517,313.37155,473.65244,313.49377,473.65207L313.8256,473.65112C313.9478,473.65076,314.04712,473.74948,314.0475,473.8717L314.05035,474.8672C314.05072,474.9894,313.952,475.0887,313.82977,475.08905L313.49796,475.09C313.37573,475.09036,313.27643,474.99164,313.27606,474.86942L313.2732,473.87393 Z M312.27252,472.107C312.27222,471.9848,312.3709,471.88553,312.49313,471.88516L312.82498,471.88422C312.9472,471.88385,313.04648,471.98257,313.0468,472.10477L313.04715,472.2154C313.04752,472.33762,312.9488,472.43692,312.82657,472.43726L312.49472,472.4382C312.3725,472.43857,312.27322,472.33984,312.27286,472.21762L312.27252,472.107 Z M312.27512,472.99194C312.27475,472.86972,312.37347,472.77042,312.4957,472.77008L312.82755,472.7691C312.94977,472.76877,313.04904,472.8675,313.0494,472.98972L313.04974,473.1003C313.05005,473.22247,312.95135,473.32178,312.82913,473.3221L312.49728,473.3231C312.37506,473.32343,312.2758,473.2247,312.27545,473.10254L312.27512,472.99194 Z M312.27768,473.8768C312.2773,473.75458,312.37604,473.65527,312.49826,473.65494L312.8301,473.654C312.95233,473.65363,313.0516,473.75235,313.05197,473.87457L313.0523,473.9852C313.05264,474.10742,312.95395,474.2067,312.83173,474.20706L312.49988,474.208C312.37766,474.20834,312.27835,474.10965,312.278,473.9874L312.27768,473.8768 Z M312.28024,474.76166C312.27988,474.63943,312.3786,474.54016,312.50082,474.5398L312.83267,474.53885C312.9549,474.53848,313.05417,474.6372,313.05453,474.75943L313.05487,474.87006C313.0552,474.99228,312.9565,475.09155,312.8343,475.09192L312.50244,475.09286C312.38022,475.09323,312.2809,474.9945,312.28058,474.87228L312.28024,474.76166 Z M311.27704,472.1099C311.27676,471.98773,311.37546,471.88846,311.49768,471.8881L311.82953,471.88715C311.95175,471.88678,312.05096,471.98544,312.0513,472.10764L312.05164,472.21826C312.052,472.34048,311.9533,472.4398,311.8311,472.44016L311.49924,472.4411C311.377,472.44147,311.27774,472.34274,311.27737,472.22052L311.27704,472.1099 Z M311.27963,472.99484C311.2793,472.87262,311.378,472.77332,311.5002,472.77295L311.83206,472.772C311.95428,472.77167,312.05353,472.87036,312.0539,472.99258L312.05423,473.10318C312.05453,473.22534,311.95587,473.3247,311.83365,473.32504L311.5018,473.326C311.37958,473.32635,311.2803,473.22763,311.27997,473.10544L311.27963,472.99484 Z M311.2822,473.87973C311.28183,473.7575,311.38055,473.6582,311.50278,473.65787L311.83463,473.6569C311.95685,473.65656,312.0561,473.75522,312.05646,473.87744L312.0568,473.98804C312.05713,474.11026,311.95847,474.20963,311.83624,474.20996L311.5044,474.21094C311.38217,474.21127,311.2829,474.11255,311.28253,473.99033L311.2822,473.87973 Z M311.28476,474.7646C311.2844,474.64236,311.38312,474.54306,311.50534,474.54272L311.8372,474.54178C311.9594,474.5414,312.05865,474.64008,312.05902,474.7623L312.05936,474.87292C312.0597,474.99515,311.96103,475.09448,311.8388,475.09485L311.50696,475.0958C311.38474,475.09616,311.28543,474.99744,311.2851,474.8752L311.28476,474.7646 Z M310.28156,472.11276C310.28125,471.9906,310.37997,471.8913,310.5022,471.89096L310.834,471.89C310.95624,471.88965,311.05554,471.98837,311.05585,472.11053L311.05615,472.22116C311.05652,472.34338,310.9578,472.44266,310.83557,472.44302L310.50375,472.44397C310.38153,472.44434,310.28223,472.3456,310.28186,472.2234L310.28156,472.11276 Z M310.28415,472.99768C310.28378,472.87546,310.3825,472.77618,310.5047,472.77582L310.83655,472.77487C310.95877,472.7745,311.05807,472.87323,311.05844,472.99545L311.05875,473.10608C311.05908,473.22827,310.96036,473.32755,310.83813,473.3279L310.50632,473.32886C310.3841,473.32922,310.2848,473.2305,310.28445,473.1083L310.28415,472.99768 Z M310.2867,473.8826C310.28635,473.76038,310.38507,473.66107,310.50726,473.6607L310.8391,473.65976C310.96133,473.65942,311.06064,473.75815,311.06097,473.88037L311.0613,473.99097C311.06168,474.1132,310.96295,474.2125,310.84073,474.21283L310.50888,474.2138C310.3867,474.21414,310.28738,474.11542,310.28702,473.9932L310.2867,473.8826 Z M310.28928,474.76746C310.2889,474.64523,310.3876,474.54593,310.50983,474.5456L310.84167,474.54462C310.9639,474.54428,311.0632,474.643,311.06354,474.76523L311.06387,474.87582C311.06424,474.99805,310.9655,475.09735,310.8433,475.09772L310.51144,475.09866C310.38925,475.099,310.28995,475.00027,310.28958,474.87805L310.28928,474.76746 Z"/> </g> <g style="fill:rgb(0,0,0); fill-opacity:1.0; stroke-linejoin: miter"> <path d="M313.60052,472.32443L313.71112,472.32413L313.71082,472.2135L313.8214,472.21317L313.8211,472.10257L313.71048,472.10287L313.71017,471.99228L313.59958,471.9926L313.59988,472.10318L313.48926,472.10352L313.4896,472.21414L313.6002,472.2138 Z"/> </g> <g style="fill:rgb(0,0,0); fill-opacity:1.0; stroke-linejoin: miter"> <path d="M313.4954,474.20517L313.8272,474.2042L313.82755,474.31482L313.4957,474.31577L313.4954,474.20517 Z"/> </g> <g style="fill:rgb(0,0,0); fill-opacity:1.0; stroke-linejoin: miter"> <path d="M313.49185,472.98843L313.8237,472.9875L313.824,473.09808L313.49216,473.09906L313.49185,472.98843 Z"/> </g> <g style="fill:rgb(0,0,0); fill-opacity:1.0; stroke-linejoin: miter"> <path d="M313.496,474.42633L313.82785,474.42538L313.82816,474.53598L313.4963,474.53693L313.496,474.42633 Z"/> </g> <g style="fill:rgb(0,0,0); fill-opacity:1.0; stroke-linejoin: miter"> <path d="M309.82416,470.04794L309.82416,471.45242L309.8331,471.45242L314.4081,471.45242L314.4081,470.04794L309.82416,470.04794"/> </g> <g style="fill:rgb(255,255,255); fill-opacity:1.0; stroke-linejoin: miter"> <path d="M310.09454,470.2734L310.09454,471.22693L310.10245,471.22693L314.13773,471.22693L314.13773,470.2734L310.09454,470.2734"/> </g> </g> </g> </svg>